# xmcd
#
# Track frame offsets: 
#        150
#        15450
#        31556
#        50562
#        74356
#        96901
#
# Disc length: 1468 seconds
#
# Revision: 0
# Processed by: cddbd v1.5PL3 Copyright (c) Steve Scherf et al.
# Submitted via: ExactAudioCopy v0.95a5
#
DISCID=4205ba06
DTITLE=Rock and Roll Doctors - Demo 060304
DYEAR=2004
DGENRE=Blues
TTITLE0=Two Trains
TTITLE1=Old Folks Boogie
TTITLE2=Perfect Imperfection
TTITLE3=Skin It Back
TTITLE4=Lafayette
TTITLE5=Kokomo
EXTD=
EXTT0=
EXTT1=
EXTT2=
EXTT3=
EXTT4=
EXTT5=
PLAYORDER=
